<?xml version="1.0" encoding="utf-8"?>
<!-- Generator: Adobe Illustrator 23.0.1, SVG Export Plug-In . SVG Version: 6.00 Build 0)  -->
<svg version="1.1" id="_x30_" xmlns="http://www.w3.org/2000/svg" xmlns:xlink="http://www.w3.org/1999/xlink" x="0px" y="0px"
	 viewBox="0 0 612 792" style="enable-background:new 0 0 612 792;" xml:space="preserve">
<style type="text/css">
	.st0{fill:none;stroke:#000000;stroke-width:0.1;stroke-miterlimit:10;}
	.st1{fill:none;stroke:#000000;stroke-width:0.1;stroke-linecap:round;stroke-linejoin:round;stroke-miterlimit:10;}
</style>
<g id="LWPOLYLINE">
	<path class="st0" d="M257.5,342.47c-1.66,0-3,1.34-3,3v97.05c0,1.66,1.34,3,3,3h97c1.66,0,3-1.34,3-3v-97.05c0-1.66-1.34-3-3-3
		H257.5z"/>
</g>
<g id="LWPOLYLINE_1_">
	<rect x="296.54" y="345.37" class="st1" width="1" height="9.11"/>
</g>
<g id="LWPOLYLINE_2_">
	<rect x="303.14" y="345.37" class="st1" width="1" height="9.11"/>
</g>
<g id="LWPOLYLINE_3_">
	<rect x="294.34" y="345.37" class="st1" width="1" height="9.11"/>
</g>
<g id="LWPOLYLINE_4_">
	<rect x="298.74" y="345.37" class="st1" width="1" height="9.11"/>
</g>
<g id="LWPOLYLINE_5_">
	<rect x="300.94" y="345.37" class="st1" width="1" height="9.11"/>
</g>
<g id="LWPOLYLINE_6_">
	<rect x="292.14" y="345.37" class="st1" width="1" height="9.11"/>
</g>
<g id="LWPOLYLINE_7_">
	<rect x="303.14" y="345.37" class="st1" width="1" height="9.11"/>
</g>
<g id="LWPOLYLINE_8_">
	<rect x="300.94" y="345.37" class="st1" width="1" height="9.11"/>
</g>
<g id="LWPOLYLINE_9_">
	<rect x="298.74" y="345.37" class="st1" width="1" height="9.11"/>
</g>
<g id="LWPOLYLINE_10_">
	<rect x="296.54" y="345.37" class="st1" width="1" height="9.11"/>
</g>
<g id="LWPOLYLINE_11_">
	<rect x="294.34" y="345.37" class="st1" width="1" height="9.11"/>
</g>
<g id="LWPOLYLINE_12_">
	<rect x="292.14" y="345.37" class="st1" width="1" height="9.11"/>
</g>
<g id="LINE">
	<line class="st1" x1="293.5" y1="448.53" x2="319.5" y2="448.53"/>
</g>
</svg>
