0
SECTION
2
HEADER
9
$INSUNITS
70
4
9
$ACADVER
1
AC1014
9
$HANDSEED
5
FFFF
0
ENDSEC
0
SECTION
2
TABLES
0
TABLE
2
VPORT
5
8
100
AcDbSymbolTable
0
ENDTAB
0
TABLE
2
LTYPE
5
5
100
AcDbSymbolTable
0
LTYPE
5
14
100
AcDbSymbolTableRecord
100
AcDbLinetypeTableRecord
2
BYBLOCK
70
0
0
LTYPE
5
15
100
AcDbSymbolTableRecord
100
AcDbLinetypeTableRecord
2
BYLAYER
70
0
0
ENDTAB
0
TABLE
2
LAYER
5
2
100
AcDbSymbolTable
70
2
0
LAYER
5
50
100
AcDbSymbolTableRecord
100
AcDbLayerTableRecord
2
0
70
0
6
CONTINUOUS
0
ENDTAB
0
TABLE
2
STYLE
5
3
100
AcDbSymbolTable
70
1
0
STYLE
5
11
100
AcDbSymbolTableRecord
100
AcDbTextStyleTableRecord
2
STANDARD
70
0
0
ENDTAB
0
TABLE
2
VIEW
5
6
100
AcDbSymbolTable
70
0
0
ENDTAB
0
TABLE
2
UCS
5
7
100
AcDbSymbolTable
70
0
0
ENDTAB
0
TABLE
2
APPID
5
9
100
AcDbSymbolTable
70
2
0
APPID
5
12
100
AcDbSymbolTableRecord
100
AcDbRegAppTableRecord
2
ACAD
70
0
0
ENDTAB
0
TABLE
2
DIMSTYLE
5
A
100
AcDbSymbolTable
70
1
0
ENDTAB
0
TABLE
2
BLOCK_RECORD
5
1
100
AcDbSymbolTable
70
1
0
BLOCK_RECORD
5
1F
100
AcDbSymbolTableRecord
100
AcDbBlockTableRecord
2
*MODEL_SPACE
0
BLOCK_RECORD
5
1B
100
AcDbSymbolTableRecord
100
AcDbBlockTableRecord
2
*PAPER_SPACE
0
ENDTAB
0
ENDSEC
0
SECTION
2
BLOCKS
0
BLOCK
5
20
100
AcDbEntity
100
AcDbBlockBegin
2
*MODEL_SPACE
0
ENDBLK
5
21
100
AcDbEntity
100
AcDbBlockEnd
0
BLOCK
5
1C
100
AcDbEntity
100
AcDbBlockBegin
2
*PAPER_SPACE
0
ENDBLK
5
1D
100
AcDbEntity
100
AcDbBlockEnd
0
ENDSEC
0
SECTION
2
ENTITIES
0
LWPOLYLINE
5
100
100
AcDbEntity
8
0
100
AcDbPolyline
90
8
70
1
43
0.0
10
-52.000000789761771
20
34.35978360459216
42
0.41421356237309986
10
-55.000000789761749
20
31.359783604592142
10
-55.000000789761536
20
-65.692564374762426
42
0.41421356237309592
10
-52.000000789761522
20
-68.692564374762412
10
45.000000685453408
20
-68.692564374762412
42
0.41421356237309764
10
48.000000685453415
20
-65.692564374762412
10
48.000000685453415
20
31.35978360459216
42
0.41421356237309548
10
45.000000685453415
20
34.35978360459216
0
LWPOLYLINE
5
101
100
AcDbEntity
8
0
100
AcDbPolyline
90
4
70
1
43
0.0
10
-11.964347669784079
20
31.457823094888511
10
-11.964347669784079
20
22.351391031075877
10
-12.964347669784079
20
22.351391031075877
10
-12.964347669784079
20
31.457823094888511
0
LWPOLYLINE
5
102
100
AcDbEntity
8
0
100
AcDbPolyline
90
4
70
1
43
0.0
10
-5.3643476697840775
20
31.457823094888511
10
-5.3643476697840775
20
22.351391031075877
10
-6.3643476697840784
20
22.351391031075877
10
-6.3643476697840784
20
31.457823094888511
0
LWPOLYLINE
5
103
100
AcDbEntity
8
0
100
AcDbPolyline
90
4
70
1
43
0.0
10
-14.164347669784078
20
31.457823094888511
10
-14.164347669784078
20
22.351391031075877
10
-15.16434766978408
20
22.351391031075877
10
-15.16434766978408
20
31.457823094888511
0
LWPOLYLINE
5
104
100
AcDbEntity
8
0
100
AcDbPolyline
90
4
70
1
43
0.0
10
-9.7643476697840761
20
31.457823094888511
10
-9.7643476697840761
20
22.351391031075877
10
-10.764347669784078
20
22.351391031075877
10
-10.764347669784078
20
31.457823094888511
0
LWPOLYLINE
5
105
100
AcDbEntity
8
0
100
AcDbPolyline
90
4
70
1
43
0.0
10
-7.5643476697840768
20
31.457823094888511
10
-7.5643476697840768
20
22.351391031075877
10
-8.5643476697840786
20
22.351391031075877
10
-8.5643476697840786
20
31.457823094888511
0
LWPOLYLINE
5
106
100
AcDbEntity
8
0
100
AcDbPolyline
90
4
70
1
43
0.0
10
-17.364347669784081
20
31.457823094888511
10
-16.364347669784078
20
31.457823094888511
10
-16.364347669784078
20
22.351391031075877
10
-17.364347669784081
20
22.351391031075877
0
LWPOLYLINE
5
107
100
AcDbEntity
8
0
100
AcDbPolyline
90
4
70
1
43
0.0
10
-5.3643476697840775
20
22.351391031075877
10
-6.3643476697840784
20
22.351391031075877
10
-6.3643476697840784
20
31.457823094888511
10
-5.3643476697840775
20
31.457823094888511
0
LWPOLYLINE
5
108
100
AcDbEntity
8
0
100
AcDbPolyline
90
4
70
1
43
0.0
10
-7.5643476697840768
20
31.457823094888511
10
-7.5643476697840768
20
22.351391031075877
10
-8.5643476697840786
20
22.351391031075877
10
-8.5643476697840786
20
31.457823094888511
0
LWPOLYLINE
5
109
100
AcDbEntity
8
0
100
AcDbPolyline
90
4
70
1
43
0.0
10
-9.7643476697840761
20
31.457823094888511
10
-9.7643476697840761
20
22.351391031075877
10
-10.764347669784078
20
22.351391031075877
10
-10.764347669784078
20
31.457823094888511
0
LWPOLYLINE
5
110
100
AcDbEntity
8
0
100
AcDbPolyline
90
4
70
1
43
0.0
10
-12.964347669784079
20
31.457823094888511
10
-11.964347669784079
20
31.457823094888511
10
-11.964347669784079
20
22.351391031075877
10
-12.964347669784079
20
22.351391031075877
0
LWPOLYLINE
5
111
100
AcDbEntity
8
0
100
AcDbPolyline
90
4
70
1
43
0.0
10
-14.164347669784078
20
31.457823094888511
10
-14.164347669784078
20
22.351391031075877
10
-15.16434766978408
20
22.351391031075877
10
-15.16434766978408
20
31.457823094888511
0
LWPOLYLINE
5
112
100
AcDbEntity
8
0
100
AcDbPolyline
90
4
70
1
43
0.0
10
-16.364347669784078
20
31.457823094888511
10
-16.364347669784078
20
22.351391031075877
10
-17.364347669784081
20
22.351391031075877
10
-17.364347669784081
20
31.457823094888511
0
LINE
5
113
100
AcDbEntity
8
0
100
AcDbLine
10
-15.999999999999988
20
-71.700000000000003
30
-1.1102230246251565e-15
11
10.000000000000014
21
-71.700000000000003
31
-1.1102230246251565e-15
0
ENDSEC
0
SECTION
2
OBJECTS
0
DICTIONARY
5
C
100
AcDbDictionary
3
ACAD_GROUP
350
D
3
ACAD_MLINESTYLE
350
17
0
DICTIONARY
5
D
100
AcDbDictionary
0
DICTIONARY
5
1A
330
C
100
AcDbDictionary
0
DICTIONARY
5
17
100
AcDbDictionary
0
ENDSEC
0
EOF
